<svg width="477" height="466" fill="none" xmlns="http://www.w3.org/2000/svg"><path d="M218.89 476.392c-.523-.15-3.153-.758-5.843-1.352-2.691-.593-5.066-1.348-5.278-1.677-.213-.329-1.019-8.812-1.793-18.851-.774-10.04-1.474-18.615-1.555-19.057-.118-.637-1.365-1.05-6.013-1.993-7.688-1.56-18.235-4.473-25.546-7.057-3.229-1.141-6.051-1.922-6.271-1.736-.22.186-5.307 6.996-11.304 15.134s-11.178 15.033-11.512 15.323c-.472.408-1.818.138-6.009-1.208-16.03-5.148-30.782-13.919-41.18-24.486l-2.488-2.528 8.317-17.443c4.574-9.593 8.331-17.584 8.349-17.756.017-.172-1.433-1.547-3.224-3.056-6.167-5.197-14.304-13.467-22.57-22.941l-1.577-1.808-17.78 7.771c-16.798 7.341-17.833 7.724-18.746 6.935-.531-.459-2.796-2.905-5.033-5.436-9.728-11.005-17.933-26.015-21.625-39.561l-1.04-3.818 1.319-.862c.726-.473 7.938-5.362 16.026-10.865 11.584-7.879 14.69-10.213 14.622-10.991-.047-.543-1.006-3.724-2.131-7.069-2.38-7.078-5.25-18.206-6.438-24.978l-.833-4.74-6.517-.982c-3.585-.54-12.363-1.577-19.506-2.304l-12.987-1.324-1.347-6.377c-1.569-7.428-2.487-16.022-2.525-23.629-.042-8.342 2.7-25.576 4.284-26.934.258-.221 9.082-1.086 19.609-1.923l19.139-1.521.73-3.591c2.016-9.908 6.868-27.029 9.369-33.057.339-.818-1.639-2.441-15.324-12.574l-15.712-11.634.494-1.908c1.023-3.947 5.028-14.397 7.23-18.865C33.363 114.144 41.663 102.482 47.65 97l2.151-1.97 17.268 8.231c9.498 4.528 17.469 8.252 17.714 8.277.245.025 1.986-1.724 3.87-3.888 5.163-5.931 11.98-12.706 18.339-18.228 5.199-4.514 5.666-5.052 5.257-6.072-.247-.615-3.737-8.68-7.756-17.923l-7.306-16.805 2.08-2.07c10.198-10.147 25.543-19.523 39.438-24.099 8.834-2.908 6.599-4.526 19.282 13.955l11 16.028 4.349-1.496c8.813-3.03 23.059-6.675 31.013-7.936l2.04-.323.794-4.692c.437-2.581 1.468-11.298 2.292-19.371l1.499-14.678 1.783-.54c8.65-2.621 22.126-4.02 33.383-3.466 8.427.414 21.338 3.016 22.029 4.438.14.29.904 8.919 1.697 19.176.793 10.256 1.568 18.805 1.722 18.998.155.192 2.654.84 5.555 1.44 7.637 1.577 19.008 4.69 25.817 7.069 3.251 1.136 5.963 2.07 6.027 2.077.063.006 5.328-7.038 11.7-15.654 11.555-15.626 11.589-15.665 13.013-15.268 12.594 3.503 26.814 10.503 36.463 17.948 4.476 3.454 10.9 9.394 11.148 10.307.098.36-3.485 8.349-7.962 17.752-4.476 9.402-8.157 17.27-8.178 17.484-.022.213 1.425 1.622 3.215 3.13 4.705 3.965 13.582 12.756 18.032 17.857 2.113 2.422 4.355 4.959 4.981 5.639l1.14 1.234 17.818-7.75 17.818-7.75 2.05 2.043c3.349 3.337 10.164 11.896 13.052 16.389 5.47 8.513 10.627 20.082 12.685 28.457l.678 2.762-16.152 11.052-16.152 11.052 2.153 6.42c2.449 7.308 5.219 17.923 6.683 25.616.549 2.883 1.091 5.361 1.204 5.507.113.146 8.83 1.254 19.371 2.463l19.165 2.197.873 3.026c1.512 5.245 3.102 17.665 3.208 25.064.144 10.044-2.456 27.174-4.36 28.723-.332.27-8.82 1.125-18.861 1.9-10.041.774-18.617 1.473-19.059 1.554-.637.115-1.05 1.361-1.993 6.009-1.56 7.687-4.474 18.232-7.057 25.541-1.142 3.229-1.922 6.04-1.735 6.248.187.207 7 5.289 15.138 11.294 8.139 6.005 15.035 11.195 15.324 11.534.408.478.138 1.822-1.209 6.016-3.147 9.797-8.16 20.257-13.219 27.583-4.474 6.478-12.871 15.82-14.107 15.693-.312-.032-8.188-3.698-17.502-8.146-9.314-4.448-17.096-8.104-17.294-8.124-.197-.02-2.344 2.213-4.77 4.963-4.745 5.378-12.204 12.755-18.934 18.728l-4.19 3.717 7.759 17.787 7.758 17.787-2.048 2.054c-3.341 3.352-11.899 10.164-16.395 13.053-8.522 5.474-20.132 10.645-28.461 12.677l-2.761.674-10.427-15.211c-5.734-8.365-10.771-15.593-11.193-16.061-.707-.783-1.243-.695-6.74 1.111-9.015 2.962-21.862 6.176-29.091 7.278-1.849.282-2.096.486-2.534 2.097-.267.981-1.293 9.698-2.282 19.371l-1.797 17.587-2.221.723c-3.48 1.134-14.45 2.841-20.949 3.261-5.371.347-20.293-.395-22.892-1.138h-.001Zm22.099-106.424c29.797-.859 57.298-11.016 79.876-29.503 31.611-25.883 49.201-63.994 48.312-104.673-.533-24.384-7.905-48.192-21.388-69.069-3.691-5.716-12.273-16.242-17.127-21.01-21.944-21.55-49.165-34.385-79.407-37.442-35.257-3.565-68.816 6.478-96.188 28.784-22.469 18.311-37.258 41.675-44.676 70.578-2.317 9.029-4.04 24.705-3.724 33.882.737 21.415 5.646 40.325 15.14 58.319 4.636 8.787 8.213 14.197 14.422 21.813 20.397 25.021 47.702 40.822 80.928 46.831 4.48.811 18.021 1.657 23.832 1.49Z" fill="#fff" fill-opacity=".04"/></svg>