<svg width="15" height="10" fill="none" xmlns="http://www.w3.org/2000/svg"><path d="M14 1.287c.093-.325 0-.565-.446-.565h-1.477c-.376 0-.55.206-.642.435 0 0-.752 1.904-1.816 3.138-.343.357-.501.471-.69.471-.092 0-.235-.114-.235-.44V1.287c0-.39-.105-.565-.416-.565H5.956a.362.362 0 0 0-.377.352c0 .37.532.456.587 1.497v2.26c0 .495-.085.587-.273.587-.502 0-1.72-1.912-2.443-4.1-.145-.424-.288-.596-.667-.596H1.306C.885.722.8.928.8 1.157c0 .406.501 2.425 2.334 5.091 1.222 1.82 2.942 2.808 4.507 2.808.94 0 1.056-.22 1.056-.597 0-1.74-.086-1.903.386-1.903.218 0 .594.114 1.472.992 1.003 1.041 1.168 1.508 1.73 1.508h1.477c.421 0 .635-.22.512-.651-.281-.91-2.18-2.78-2.265-2.904-.218-.292-.155-.422 0-.682.003-.003 1.806-2.638 1.991-3.532Z" fill="#fff"/></svg>