<svg width="14" height="14" fill="none" xmlns="http://www.w3.org/2000/svg"><path d="M7.003 3.419a3.414 3.414 0 0 0-3.42 3.42 3.414 3.414 0 0 0 3.42 3.419 3.414 3.414 0 0 0 3.42-3.42 3.414 3.414 0 0 0-3.42-3.42Zm0 5.643A2.227 2.227 0 0 1 4.78 6.838c0-1.226.997-2.223 2.223-2.223s2.223.997 2.223 2.223-1 2.224-2.223 2.224Zm4.357-5.783a.796.796 0 0 1-.797.797.798.798 0 1 1 .798-.798Zm2.265.81c-.05-1.07-.295-2.016-1.077-2.795C11.768.514 10.82.27 9.753.216 8.652.154 5.351.154 4.25.216c-1.065.05-2.012.295-2.795 1.075C.673 2.07.432 3.017.378 4.085c-.063 1.101-.063 4.402 0 5.503.05 1.069.295 2.015 1.077 2.795.783.78 1.727 1.024 2.795 1.077 1.101.063 4.402.063 5.503 0 1.068-.05 2.015-.294 2.795-1.077.78-.78 1.023-1.726 1.077-2.795.063-1.1.063-4.399 0-5.5Zm-1.423 6.68a2.25 2.25 0 0 1-1.268 1.269c-.877.348-2.96.268-3.931.268-.97 0-3.057.077-3.932-.268a2.251 2.251 0 0 1-1.267-1.268c-.349-.878-.268-2.961-.268-3.932 0-.97-.078-3.056.268-3.931A2.25 2.25 0 0 1 3.07 1.639c.878-.348 2.962-.268 3.932-.268.97 0 3.056-.077 3.931.268a2.25 2.25 0 0 1 1.268 1.268c.349.878.268 2.961.268 3.931 0 .97.08 3.057-.268 3.932Z" fill="#fff"/></svg>