<svg width="14" height="12" fill="none" xmlns="http://www.w3.org/2000/svg"><path d="M12.296 2.95c.009.12.009.238.009.356 0 3.613-2.75 7.775-7.775 7.775A7.722 7.722 0 0 1 .333 9.855c.22.025.432.033.66.033a5.473 5.473 0 0 0 3.393-1.167A2.737 2.737 0 0 1 1.83 6.826a2.904 2.904 0 0 0 1.235-.051 2.733 2.733 0 0 1-2.19-2.682V4.06c.364.203.787.33 1.235.347A2.73 2.73 0 0 1 1.264.751a7.767 7.767 0 0 0 5.634 2.86 3.084 3.084 0 0 1-.067-.626A2.731 2.731 0 0 1 9.563.252c.787 0 1.498.33 1.997.863a5.38 5.38 0 0 0 1.734-.66 2.726 2.726 0 0 1-1.201 1.506 5.479 5.479 0 0 0 1.574-.423 5.874 5.874 0 0 1-1.37 1.413Z" fill="#fff"/></svg>