<svg width="477" height="466" viewBox="0 0 477 466" fill="none" xmlns="http://www.w3.org/2000/svg">
<path d="M218.89 476.392C218.367 476.242 215.737 475.634 213.047 475.04C210.356 474.447 207.981 473.692 207.769 473.363C207.556 473.034 206.75 464.551 205.976 454.512C205.202 444.472 204.502 435.897 204.421 435.455C204.303 434.818 203.056 434.405 198.408 433.462C190.72 431.902 180.173 428.989 172.862 426.405C169.633 425.264 166.811 424.483 166.591 424.669C166.371 424.855 161.284 431.665 155.287 439.803C149.29 447.941 144.109 454.836 143.775 455.126C143.303 455.534 141.957 455.264 137.766 453.918C121.736 448.77 106.984 439.999 96.5863 429.432L94.0982 426.904L102.415 409.461C106.989 399.868 110.746 391.877 110.764 391.705C110.781 391.533 109.331 390.158 107.54 388.649C101.373 383.452 93.2364 375.182 84.9705 365.708L83.3928 363.9L65.6132 371.671C48.8149 379.012 47.7801 379.395 46.8673 378.606C46.3358 378.147 44.0708 375.701 41.8338 373.17C32.1056 362.165 23.9011 347.155 20.209 333.609L19.1684 329.791L20.4879 328.929C21.2136 328.456 28.4256 323.567 36.5145 318.064C48.0981 310.185 51.2034 307.851 51.1362 307.073C51.0892 306.53 50.1302 303.349 49.005 300.004C46.6241 292.926 43.7556 281.798 42.5666 275.026L41.7343 270.286L35.2165 269.304C31.6316 268.764 22.8544 267.727 15.7114 267L2.72422 265.676L1.37717 259.299C-0.191526 251.871 -1.10991 243.277 -1.14787 235.67C-1.18951 227.328 1.55151 210.094 3.13579 208.736C3.39401 208.515 12.218 207.65 22.7446 206.813L41.884 205.292L42.6146 201.701C44.6302 191.793 49.482 174.672 51.9825 168.644C52.3218 167.826 50.3443 166.203 36.6594 156.07L20.9467 144.436L21.4411 142.528C22.464 138.581 26.469 128.131 28.6713 123.663C33.3629 114.144 41.6632 102.482 47.6496 97L49.8012 95.0295L67.0694 103.261C76.5669 107.789 84.5379 111.513 84.7828 111.538C85.0276 111.563 86.769 109.814 88.6527 107.65C93.8164 101.719 100.633 94.9437 106.992 89.4224C112.191 84.9083 112.658 84.3695 112.249 83.3503C112.002 82.7351 108.512 74.6696 104.493 65.4269L97.1866 48.622L99.2669 46.5522C109.465 36.4053 124.81 27.0293 138.705 22.4535C147.539 19.5448 145.304 17.9274 157.987 36.4082L168.987 52.4359L173.336 50.9403C182.149 47.9101 196.395 44.2645 204.349 43.0041L206.389 42.6809L207.183 37.9886C207.62 35.4078 208.651 26.6911 209.475 18.618L210.974 3.93981L212.757 3.39982C221.407 0.779003 234.883 -0.620271 246.14 -0.0663465C254.567 0.348386 267.478 2.94972 268.169 4.37232C268.309 4.66215 269.073 13.291 269.866 23.5476C270.659 33.8042 271.434 42.3535 271.588 42.5459C271.743 42.7384 274.242 43.3861 277.143 43.9852C284.78 45.5625 296.151 48.6766 302.96 51.055C306.211 52.1909 308.923 53.1254 308.987 53.1319C309.05 53.1383 314.315 46.0941 320.687 37.478C332.242 21.8524 332.276 21.8135 333.7 22.2097C346.294 25.7129 360.514 32.7126 370.163 40.1583C374.639 43.6122 381.063 49.5518 381.311 50.4653C381.409 50.8259 377.826 58.814 373.349 68.2167C368.873 77.6193 365.192 85.4871 365.171 85.7005C365.149 85.914 366.596 87.323 368.386 88.8316C373.091 92.7962 381.968 101.587 386.418 106.688C388.531 109.11 390.773 111.647 391.399 112.327L392.539 113.561L410.357 105.811L428.175 98.0605L430.225 100.104C433.574 103.441 440.389 112 443.277 116.493C448.747 125.006 453.904 136.575 455.962 144.95L456.64 147.712L440.488 158.764L424.336 169.816L426.489 176.236C428.938 183.544 431.708 194.159 433.172 201.852C433.721 204.735 434.263 207.213 434.376 207.359C434.489 207.505 443.206 208.613 453.747 209.822L472.912 212.019L473.785 215.045C475.297 220.29 476.887 232.71 476.993 240.109C477.137 250.153 474.537 267.283 472.633 268.832C472.301 269.102 463.813 269.957 453.772 270.732C443.731 271.506 435.155 272.205 434.713 272.286C434.076 272.401 433.663 273.647 432.72 278.295C431.16 285.982 428.246 296.527 425.663 303.836C424.521 307.065 423.741 309.876 423.928 310.084C424.115 310.291 430.928 315.373 439.066 321.378C447.205 327.383 454.101 332.573 454.39 332.912C454.798 333.39 454.528 334.734 453.181 338.928C450.034 348.725 445.021 359.185 439.962 366.511C435.488 372.989 427.091 382.331 425.855 382.204C425.543 382.172 417.667 378.506 408.353 374.058C399.039 369.61 391.257 365.954 391.059 365.934C390.862 365.914 388.715 368.147 386.289 370.897C381.544 376.275 374.085 383.652 367.355 389.625L363.165 393.342L370.924 411.129L378.682 428.916L376.634 430.97C373.293 434.322 364.735 441.134 360.239 444.023C351.717 449.497 340.107 454.668 331.778 456.7L329.017 457.374L318.59 442.163C312.856 433.798 307.819 426.57 307.397 426.102C306.69 425.319 306.154 425.407 300.657 427.213C291.642 430.175 278.795 433.389 271.566 434.491C269.717 434.773 269.47 434.977 269.032 436.588C268.765 437.569 267.739 446.286 266.75 455.959L264.953 473.546L262.732 474.269C259.252 475.403 248.282 477.11 241.783 477.53C236.412 477.877 221.49 477.135 218.891 476.392L218.89 476.392ZM240.989 369.968C270.786 369.109 298.287 358.952 320.865 340.465C352.476 314.582 370.066 276.471 369.177 235.792C368.644 211.408 361.272 187.6 347.789 166.723C344.098 161.007 335.516 150.481 330.662 145.713C308.718 124.163 281.497 111.328 251.255 108.271C215.998 104.706 182.439 114.749 155.067 137.055C132.598 155.366 117.809 178.73 110.391 207.633C108.074 216.662 106.351 232.338 106.667 241.515C107.404 262.93 112.313 281.84 121.807 299.834C126.443 308.621 130.02 314.031 136.229 321.647C156.626 346.668 183.931 362.469 217.157 368.478C221.637 369.289 235.178 370.135 240.989 369.968V369.968Z" fill="white" fill-opacity="0.04"/>
</svg>
